<?xml version="1.0" standalone="no"?>
<!DOCTYPE svg PUBLIC "-//W3C//DTD SVG 20010904//EN"
 "http://www.w3.org/TR/2001/REC-SVG-20010904/DTD/svg10.dtd">
<svg version="1.0" xmlns="http://www.w3.org/2000/svg"
 width="262.000000pt" height="274.000000pt" viewBox="0 0 262.000000 274.000000"
 preserveAspectRatio="xMidYMid meet">

<g transform="translate(0.000000,274.000000) scale(0.100000,-0.100000)"
fill="#000000" stroke="none">
<path d="M1350 2533 c8 -3 226 -215 485 -472 l470 -466 -470 473 c-258 259
-477 472 -485 471 -13 0 -13 -1 0 -6z"/>
<path d="M1322 1958 c-1 -312 1 -569 6 -571 6 -5 6 403 -1 933 -1 113 -3 -50
-5 -362z"/>
<path d="M1144 2478 l-29 -33 33 29 c30 28 37 36 29 36 -2 0 -16 -15 -33 -32z"/>
<path d="M1240 2427 l5 -62 3 54 c2 30 0 58 -5 62 -4 4 -6 -20 -3 -54z"/>
<path d="M1030 2365 c-18 -19 -32 -36 -29 -39 10 -9 69 -36 69 -32 0 3 -14 13
-32 22 l-32 17 37 33 c20 19 33 34 29 34 -5 0 -23 -16 -42 -35z"/>
<path d="M1200 2316 c0 -2 8 -10 18 -17 15 -13 16 -12 3 4 -13 16 -21 21 -21
13z"/>
<path d="M910 2245 c-18 -19 -32 -36 -29 -37 2 -2 20 14 40 34 21 21 34 38 30
38 -4 0 -22 -16 -41 -35z"/>
<path d="M1100 2276 c0 -2 8 -10 18 -17 15 -13 16 -12 3 4 -13 16 -21 21 -21
13z"/>
<path d="M1242 2221 c-2 -59 -3 -62 -19 -50 -17 12 -17 12 -1 -6 25 -27 30
-16 25 56 l-3 64 -2 -64z"/>
<path d="M1155 2230 c10 -11 20 -20 23 -20 3 0 -3 9 -13 20 -10 11 -20 20 -23
20 -3 0 3 -9 13 -20z"/>
<path d="M1070 2206 c0 -2 8 -10 18 -17 15 -13 16 -12 3 4 -13 16 -21 21 -21
13z"/>
<path d="M1150 2138 c24 -27 45 -48 47 -48 8 0 0 9 -44 50 l-48 45 45 -47z"/>
<path d="M775 2110 c-21 -22 -36 -40 -31 -40 4 0 19 14 33 31 15 17 36 35 47
39 14 6 16 9 6 9 -9 1 -34 -17 -55 -39z"/>
<path d="M1010 2136 c0 -2 8 -10 18 -17 15 -13 16 -12 3 4 -13 16 -21 21 -21
13z"/>
<path d="M1060 2097 c0 -2 15 -16 33 -33 l32 -29 -29 33 c-28 30 -36 37 -36
29z"/>
<path d="M778 2063 c7 -3 16 -2 19 1 4 3 -2 6 -13 5 -11 0 -14 -3 -6 -6z"/>
<path d="M820 2050 c8 -5 20 -10 25 -10 6 0 3 5 -5 10 -8 5 -19 10 -25 10 -5
0 -3 -5 5 -10z"/>
<path d="M1040 2018 c24 -27 45 -48 47 -48 8 0 0 9 -44 50 l-48 45 45 -47z"/>
<path d="M1237 1933 c2 -138 13 -147 13 -10 0 58 -3 108 -7 110 -5 3 -7 -42
-6 -100z"/>
<path d="M880 2027 c0 -3 12 -12 26 -22 15 -9 23 -12 20 -6 -7 11 -46 35 -46
28z"/>
<path d="M1130 2016 c0 -2 8 -10 18 -17 15 -13 16 -12 3 4 -13 16 -21 21 -21
13z"/>
<path d="M615 1950 l-49 -50 74 2 75 1 -63 6 -63 6 38 37 c21 20 51 38 68 41
l30 4 -30 2 c-25 1 -41 -9 -80 -49z"/>
<path d="M745 1980 c27 -12 43 -12 25 0 -8 5 -22 9 -30 9 -10 0 -8 -3 5 -9z"/>
<path d="M975 1950 c21 -22 41 -40 44 -40 3 0 -13 18 -34 40 -21 22 -41 40
-44 40 -3 0 13 -18 34 -40z"/>
<path d="M791 1966 c2 -2 15 -9 29 -15 24 -11 24 -11 6 3 -16 13 -49 24 -35
12z"/>
<path d="M1090 1956 c0 -2 8 -10 18 -17 15 -13 16 -12 3 4 -13 16 -21 21 -21
13z"/>
<path d="M895 1890 c28 -30 58 -66 68 -80 17 -24 17 -24 0 7 -9 18 -40 54 -67
80 l-50 48 49 -55z"/>
<path d="M1201 1910 c14 -31 19 -36 19 -24 0 6 -7 19 -16 30 -14 18 -14 18 -3
-6z"/>
<path d="M730 1890 c8 -5 20 -10 25 -10 6 0 3 5 -5 10 -8 5 -19 10 -25 10 -5
0 -3 -5 5 -10z"/>
<path d="M1035 1876 c10 -14 19 -26 22 -26 7 0 -17 39 -28 46 -6 3 -3 -5 6
-20z"/>
<path d="M1141 1880 c14 -31 19 -36 19 -24 0 6 -7 19 -16 30 -14 18 -14 18 -3
-6z"/>
<path d="M790 1866 c0 -2 8 -10 18 -17 15 -13 16 -12 3 4 -13 16 -21 21 -21
13z"/>
<path d="M839 1822 c5 -10 18 -25 27 -33 11 -9 9 -2 -6 19 -26 35 -36 42 -21
14z"/>
<path d="M553 1815 c-44 -19 -129 -100 -159 -150 -35 -60 -61 -143 -69 -219
l-7 -66 49 0 49 0 11 69 c15 97 56 182 114 236 40 38 55 45 88 45 54 0 87 -17
112 -57 25 -40 21 -64 -26 -173 -55 -125 -55 -120 7 -120 l53 0 38 98 c21 53
37 104 37 112 -1 8 -8 -6 -16 -31 -20 -66 -37 -77 -62 -41 -18 25 -19 34 -10
70 12 48 0 87 -35 120 -29 26 -84 43 -114 36 -17 -5 -31 0 -49 17 -13 12 -24
26 -24 30 0 12 33 22 95 29 l60 7 -55 1 c-30 1 -70 -5 -87 -13z"/>
<path d="M725 1804 c48 -26 86 -66 106 -109 10 -22 19 -33 19 -25 0 42 -80
128 -135 145 -11 3 -6 -1 10 -11z"/>
<path d="M1071 1815 c1 -19 18 -51 18 -35 0 8 -4 22 -9 30 -5 8 -9 11 -9 5z"/>
<path d="M1181 1774 c0 -11 3 -14 6 -6 3 7 2 16 -1 19 -3 4 -6 -2 -5 -13z"/>
<path d="M980 1775 c0 -5 5 -17 10 -25 5 -8 10 -10 10 -5 0 6 -5 17 -10 25 -5
8 -10 11 -10 5z"/>
<path d="M891 1748 c7 -13 18 -41 25 -63 7 -22 13 -31 13 -20 1 22 -34 105
-44 105 -3 0 0 -10 6 -22z"/>
<path d="M1191 1724 c0 -11 3 -14 6 -6 3 7 2 16 -1 19 -3 4 -6 -2 -5 -13z"/>
<path d="M1001 1714 c0 -11 3 -14 6 -6 3 7 2 16 -1 19 -3 4 -6 -2 -5 -13z"/>
<path d="M1102 1695 c0 -16 2 -22 5 -12 2 9 2 23 0 30 -3 6 -5 -1 -5 -18z"/>
<path d="M1012 1670 c0 -14 2 -19 5 -12 2 6 2 18 0 25 -3 6 -5 1 -5 -13z"/>
<path d="M1203 1625 c0 -27 2 -38 4 -22 2 15 2 37 0 50 -2 12 -4 0 -4 -28z"/>
<path d="M598 1641 c-44 -35 -83 -123 -102 -228 l-5 -33 48 0 48 0 17 63 c10
35 31 84 47 108 34 52 35 63 9 89 -25 25 -31 25 -62 1z"/>
<path d="M933 1600 c0 -25 2 -35 4 -22 2 12 2 32 0 45 -2 12 -4 2 -4 -23z"/>
<path d="M232 1567 c-42 -43 -63 -72 -67 -95 -16 -102 -20 -92 34 -92 53 0 61
8 61 59 0 15 9 63 20 106 11 43 19 80 17 81 -2 2 -31 -25 -65 -59z"/>
<path d="M1022 1600 c0 -14 2 -19 5 -12 2 6 2 18 0 25 -3 6 -5 1 -5 -13z"/>
<path d="M1102 1555 c0 -16 2 -22 5 -12 2 9 2 23 0 30 -3 6 -5 -1 -5 -18z"/>
<path d="M921 1534 c0 -12 -14 -48 -31 -79 -34 -65 -36 -75 -14 -75 8 0 12 5
9 11 -4 6 5 37 20 70 14 33 24 67 22 77 -4 13 -5 12 -6 -4z"/>
<path d="M1005 1513 c-4 -21 -17 -59 -30 -85 -13 -27 -20 -48 -16 -48 5 0 18
21 29 48 21 48 38 122 29 122 -3 0 -8 -17 -12 -37z"/>
<path d="M1192 1530 c0 -14 2 -19 5 -12 2 6 2 18 0 25 -3 6 -5 1 -5 -13z"/>
<path d="M1091 1500 c-1 -8 -12 -39 -26 -67 -13 -29 -22 -53 -19 -53 10 0 56
110 51 123 -4 8 -6 7 -6 -3z"/>
<path d="M1181 1484 c0 -11 3 -14 6 -6 3 7 2 16 -1 19 -3 4 -6 -2 -5 -13z"/>
<path d="M2469 1428 c7 -10 11 -25 7 -33 -3 -9 -2 -13 4 -10 15 10 12 31 -7
46 -16 13 -17 12 -4 -3z"/>
<path d="M1156 1415 c-9 -26 -7 -32 5 -12 6 10 9 21 6 23 -2 3 -7 -2 -11 -11z"/>
<path d="M1332 1298 c-9 -9 -12 -150 -12 -574 0 -476 2 -563 14 -573 10 -9 20
-9 33 -2 10 5 267 259 572 564 364 365 552 560 548 569 -4 12 -55 16 -284 21
-459 11 -857 9 -871 -5z"/>
<path d="M111 1291 c-7 -5 -12 -13 -10 -19 7 -18 1117 -1112 1128 -1112 16 0
15 1112 -1 1128 -14 14 -1094 17 -1117 3z"/>
</g>
</svg>
